#!OML:ASF I:\Actors\actors\Patient Classification 1\Patient 1\Session 1\Subject1.ASF
:FULLY-SPECIFIED
:DEGREES
1575
root 0.858963 17.5495 8.60477 17.0376 -4.14396 -8.97175
lowerback 2.5299 2.74684 3.42865
upperback -8.77495 4.18685 2.00763
thorax -10.6843 1.85696 -0.2485
lowerneck -13.4777 -4.35028 -2.4018
upperneck 21.3126 -7.01275 6.33454
head 9.24252 -2.80286 1.72364
rclavicle 3.05717e-014 2.78299e-015
rhumerus 2.02904 28.4591 -89.3332
rradius 73.2455
rwrist 35.5708
rhand 13.7292 -59.8708
rfingers 7.12502
rthumb 38.6542 -445.489
lclavicle 3.05717e-014 2.78299e-015
lhumerus -21.4959 -22.2168 101.011
lradius 69.957
lwrist -40.0929
lhand -48.239 -37.7024
lfingers 7.12502
lthumb -20.8981 -8.80811
rfemur -11.4054 29.7727 18.2625
rtibia 0.766633
rfoot -15.2158 -32.0605
rtoes 10.1234
lfemur -2.11783 -52.2538 -9.90261
ltibia -5.06366
lfoot -36.6888 61.0299
ltoes 25.6763
1576
root 0.856198 17.5488 8.61231 17.0409 -4.03915 -8.96301
lowerback 2.51206 2.7129 3.38222
upperback -8.79671 4.13945 2.0303
thorax -10.7042 1.83862 -0.192857
lowerneck -13.2865 -4.34007 -2.36263
upperneck 21.184 -6.99315 6.31004
head 9.1588 -2.80066 1.71464
rclavicle -1.46433e-014 6.95746e-015
rhumerus 0.787023 28.6394 -89.8642
rradius 74.1964
rwrist 36.9267
rhand 11.6233 -59.4984
rfingers 7.12502
rthumb 36.6643 -445.649
lclavicle -1.46433e-014 6.95746e-015
lhumerus -21.6289 -22.143 101.061
lradius 69.9692
lwrist -40.2611
lhand -48.3159 -37.5662
lfingers 7.12502
lthumb -20.9719 -8.67997
rfemur -11.341 29.9531 18.284
rtibia 0.724416
rfoot -15.145 -32.3605
rtoes 9.59617
lfemur -2.09463 -52.4687 -9.89337
ltibia -5.05935
lfoot -36.9146 61.094
ltoes 25.8024
1577
root 0.853463 17.5505 8.61779 17.0245 -3.91575 -8.98536
lowerback 2.60419 2.68571 3.37072
upperback -8.84381 4.11158 2.05186
thorax -10.8169 1.82457 -0.166037
lowerneck -13.2342 -4.35051 -2.29299
upperneck 21.1996 -7.01138 6.25167
head 9.15052 -2.81063 1.68197
rclavicle -2.01937e-014 9.34288e-015
rhumerus -0.687001 28.8172 -90.4187
rradius 75.3061
rwrist 37.7018
rhand 8.73437 -59.3282
rfingers 7.12502
rthumb 33.925 -446.129
lclavicle -2.01937e-014 9.34288e-015
lhumerus -21.7951 -22.2392 101.163
lradius 70.0387
lwrist -40.2354
lhand -48.4411 -36.461
lfingers 7.12502
lthumb -21.0922 -7.58818
rfemur -11.2657 30.0932 18.3674
rtibia 0.720868
rfoot -15.2261 -32.5977
rtoes 9.31122
lfemur -2.07876 -52.4839 -9.84227
ltibia -5.07675
lfoot -36.6286 61.1017
ltoes 25.5919
1578
root 0.851821 17.5525 8.62456 17.0224 -3.79143 -9.01464
lowerback 2.66571 2.66972 3.36538
upperback -8.88256 4.09772 2.07801
thorax -10.9014 1.81782 -0.137464
lowerneck -13.3436 -4.40183 -2.41094
upperneck 21.3632 -7.09461 6.36322
head 9.2407 -2.84057 1.72746
rclavicle -3.45699e-014 -7.15625e-015
rhumerus -2.27311 29.0624 -90.9121
rradius 76.5705
rwrist 38.5508
rhand 5.85425 -59.2939
rfingers 7.12502
rthumb 31.1844 -446.66
lclavicle -3.45699e-014 -7.15625e-015
lhumerus -21.8281 -22.3245 101.226
lradius 70.0567
lwrist -39.9586
lhand -48.2374 -35.8329
lfingers 7.12502
lthumb -20.8965 -6.93835
rfemur -11.2073 30.0169 18.4654
rtibia 0.716286
rfoot -15.2312 -32.6566
rtoes 9.15693
lfemur -2.108 -52.3031 -9.76286
ltibia -5.11322
lfoot -35.8903 61.0381
ltoes 25.1459
1579
root 0.852152 17.5528 8.63312 17.0225 -3.68218 -8.98967
lowerback 2.62986 2.65234 3.29492
upperback -8.86828 4.06885 2.10919
thorax -10.871 1.81243 -0.0598157
lowerneck -13.6073 -4.4451 -2.65608
upperneck 21.6488 -7.17447 6.59645
head 9.41253 -2.85941 1.83378
rclavicle -4.1077e-015 7.15625e-015
rhumerus -3.23543 30.213 -90.6738
rradius 77.554
rwrist 39.2039
rhand 3.22339 -59.7889
rfingers 7.12502
rthumb 28.674 -447.608
lclavicle -4.1077e-015 7.15625e-015
lhumerus -21.7014 -22.31 101.226
lradius 70.0027
lwrist -39.8371
lhand -48.1479 -35.9019
lfingers 7.12502
lthumb -20.8105 -6.99794
rfemur -11.1728 29.7672 18.4904
rtibia 0.734165
rfoot -15.1498 -32.5542
rtoes 8.92101
lfemur -2.10105 -52.355 -9.79655
ltibia -5.10878
lfoot -35.6027 61.0609
ltoes 24.904
1580
root 0.85369 17.5515 8.64284 17.0132 -3.53107 -8.9167
lowerback 2.55421 2.61308 3.1967
upperback -8.83568 4.00508 2.14148
thorax -10.7978 1.79339 0.0406301
lowerneck -13.769 -4.43763 -2.78783
upperneck 21.7687 -7.17817 6.75067
head 9.49655 -2.84826 1.90578
rclavicle -2.52425e-014 -3.04141e-014
rhumerus -5.48246 29.5267 -91.7658
rradius 79.174
rwrist 41.9164
rhand 1.01362 -58.8616
rfingers 7.12502
rthumb 26.5609 -447.019
lclavicle -2.52425e-014 -3.04141e-014
lhumerus -21.6048 -22.2374 101.231
lradius 69.9611
lwrist -39.9428
lhand -48.3711 -36.1145
lfingers 7.12502
lthumb -21.025 -7.23416
rfemur -11.1164 29.6033 18.4537
rtibia 0.732098
rfoot -15.1823 -32.581
rtoes 8.74972
lfemur -2.07298 -52.6867 -9.90745
ltibia -5.04354
lfoot -35.758 61.1824
ltoes 24.7645
1581
root 0.853617 17.5518 8.65154 16.991 -3.27421 -8.88325
lowerback 2.53295 2.54909 3.16108
upperback -8.83727 3.91879 2.18473
thorax -10.7938 1.75699 0.117423
lowerneck -13.7902 -4.42123 -2.81592
upperneck 21.78 -7.15682 6.78327
head 9.50572 -2.83615 1.92416
rclavicle 3.15897e-014 9.54166e-015
rhumerus -6.32811 30.9875 -91.3226
rradius 80.0167
rwrist 42.5694
rhand -1.70046 -59.3597
rfingers 7.12502
rthumb 23.9607 -447.885
lclavicle 3.15897e-014 9.54166e-015
lhumerus -21.6052 -22.1495 101.278
lradius 69.9762
lwrist -40.0051
lhand -48.4132 -36.2898
lfingers 7.12502
lthumb -21.0654 -7.41401
rfemur -10.9929 29.5649 18.4962
rtibia 0.668561
rfoot -15.3175 -32.8057
rtoes 8.90065
lfemur -2.13886 -52.7206 -9.8676
ltibia -5.01272
lfoot -35.3098 61.0807
ltoes 24.4782
1582
root 0.850615 17.5541 8.65712 16.9269 -2.92774 -8.92592
lowerback 2.63996 2.4738 3.1963
upperback -8.85207 3.83231 2.2431
thorax -10.8795 1.71333 0.165058
lowerneck -13.9222 -4.43715 -2.87028
upperneck 21.9981 -7.19852 6.85068
head 9.61455 -2.84402 1.94971
rclavicle 2.06394e-015 2.70347e-014
rhumerus -7.83544 31.4456 -91.6016
rradius 81.1379
rwrist 43.3908
rhand -4.19515 -59.3322
rfingers 7.12502
rthumb 21.5666 -448.151
lclavicle 2.06394e-015 2.70347e-014
lhumerus -21.5788 -22.1894 101.324
lradius 70.0042
lwrist -39.917
lhand -48.2479 -36.3026
lfingers 7.12502
lthumb -20.9066 -7.40917
rfemur -10.7964 29.5421 18.6862
rtibia 0.602628
rfoot -15.4844 -33.0595
rtoes 9.13021
lfemur -2.23713 -52.3496 -9.67755
ltibia -5.05824
lfoot -34.0541 60.7151
ltoes 23.9366
1583
root 0.846811 17.5551 8.66345 16.8578 -2.66476 -8.98529
lowerback 2.7388 2.42297 3.21082
upperback -8.84156 3.7763 2.30875
thorax -10.9328 1.68741 0.229476
lowerneck -13.8507 -4.40136 -2.80605
upperneck 21.8331 -7.12822 6.75989
head 9.53281 -2.82149 1.91731
rclavicle -1.54943e-014 5.96354e-015
rhumerus -9.53803 31.3244 -92.2081
rradius 82.1647
rwrist 43.9654
rhand -6.49871 -59.0054
rfingers 7.12502
rthumb 19.3529 -448.062
lclavicle -1.54943e-014 5.96354e-015
lhumerus -21.5215 -22.3694 101.339
lradius 70.0178
lwrist -39.8668
lhand -48.2929 -35.9667
lfingers 7.12502
lthumb -20.9498 -7.07806
rfemur -10.6279 29.4838 18.8851
rtibia 0.590662
rfoot -15.5726 -33.1954
rtoes 9.14646
lfemur -2.22097 -52.1951 -9.56443
ltibia -5.10478
lfoot -33.3002 60.5352
ltoes 23.5258
1584
root 0.843108 17.5544 8.67332 16.837 -2.58271 -8.99896
lowerback 2.67798 2.40188 3.12604
upperback -8.8097 3.74141 2.36763
thorax -10.8695 1.68235 0.346648
lowerneck -13.8016 -4.36894 -2.88151
upperneck 21.7341 -7.07733 6.8425
head 9.4921 -2.79848 1.96551
rclavicle 2.42533e-014 -1.25234e-014
rhumerus -11.1325 31.3592 -92.8587
rradius 82.83
rwrist 44.2084
rhand -9.20425 -59.1577
rfingers 7.12502
rthumb 16.7498 -448.455
lclavicle 2.42533e-014 -1.25234e-014
lhumerus -21.498 -22.4758 101.318
lradius 70.0481
lwrist -39.8432
lhand -48.3819 -35.7476
lfingers 7.12502
lthumb -21.0354 -6.8685
rfemur -10.5445 29.374 18.9755
rtibia 0.602469
rfoot -15.5642 -33.1592
rtoes 9.11376
lfemur -2.08264 -52.4353 -9.62742
ltibia -5.13502
lfoot -33.4379 60.6981
ltoes 23.4169
1585
root 0.839109 17.5549 8.68286 16.8177 -2.52809 -8.97496
lowerback 2.61757 2.37567 3.01013
upperback -8.80264 3.69571 2.39873
thorax -10.8344 1.67255 0.452175
lowerneck -13.7306 -4.35919 -2.83675
upperneck 21.7471 -7.07822 6.85113
head 9.48213 -2.79568 1.96231
rclavicle -1.13043e-014 2.42517e-014
rhumerus -12.7664 31.6551 -93.6402
rradius 83.2507
rwrist 44.3931
rhand -12.4514 -60.2566
rfingers 7.12502
rthumb 13.6219 -449.791
lclavicle -1.13043e-014 2.42517e-014
lhumerus -21.5631 -22.4675 101.29
lradius 70.1104
lwrist -39.8117
lhand -48.2645 -35.8323
lfingers 7.12502
lthumb -20.9225 -6.94063
rfemur -10.4587 29.3618 19.0139
rtibia 0.605478
rfoot -15.6392 -33.1824
rtoes 9.26291
lfemur -1.95603 -52.5388 -9.73574
ltibia -5.16669
lfoot -33.4152 60.7727
ltoes 23.2194
1586
root 0.838137 17.5552 8.69048 16.8339 -2.36049 -8.96435
lowerback 2.57085 2.3298 3.01392
upperback -8.84022 3.63353 2.40089
thorax -10.8492 1.64193 0.461191
lowerneck -13.629 -4.34734 -2.81467
upperneck 21.7486 -7.06045 6.82107
head 9.46043 -2.79127 1.95245
rclavicle 1.21756e-014 1.25234e-014
rhumerus -14.1932 31.0843 -94.2964
rradius 83.3088
rwrist 45.573
rhand -15.19 -60.345
rfingers 7.12502
rthumb 10.9815 -269.962
lclavicle 1.21756e-014 1.25234e-014
lhumerus -21.6925 -22.4904 101.287
lradius 70.1602
lwrist -39.8334
lhand -48.2004 -35.8342
lfingers 7.12502
lthumb -20.8609 -6.93578
rfemur -10.4194 29.4756 19.0436
rtibia 0.626008
rfoot -15.8403 -33.4012
rtoes 9.48278
lfemur -2.04425 -52.3863 -9.65839
ltibia -5.18034
lfoot -32.8707 60.6198
ltoes 22.8715
1587
root 0.840201 17.5537 8.69921 16.8892 -2.23189 -8.98731
lowerback 2.44537 2.31271 3.11219
upperback -8.85253 3.61102 2.38943
thorax -10.7808 1.62325 0.402258
lowerneck -13.6678 -4.38178 -2.95042
upperneck 21.801 -7.1071 6.92999
head 9.49816 -2.81009 2.00626
rclavicle -2.42595e-014 -2.3059e-014
rhumerus -15.8174 30.609 -95.2844
rradius 83.3452
rwrist 46.9452
rhand -17.8524 -60.7214
rfingers 7.12502
rthumb 8.4128 -269.466
lclavicle -2.42595e-014 -2.3059e-014
lhumerus -21.7563 -22.5677 101.286
lradius 70.1313
lwrist -39.8432
lhand -48.2235 -35.7315
lfingers 7.12502
lthumb -20.8832 -6.83552
rfemur -10.4547 29.483 19.0755
rtibia 0.670095
rfoot -15.9075 -33.5197
rtoes 9.42704
lfemur -2.13933 -52.472 -9.54693
ltibia -5.17604
lfoot -32.7307 60.6677
ltoes 22.7571
1588
root 0.841094 17.5532 8.70742 16.8655 -2.26646 -8.99094
lowerback 2.40275 2.33494 3.13569
upperback -8.80803 3.63711 2.37562
thorax -10.7016 1.63468 0.37382
lowerneck -13.6886 -4.37206 -2.79203
upperneck 21.7448 -7.10046 6.825
head 9.47199 -2.80614 1.94375
rclavicle -7.71844e-016 8.15017e-015
rhumerus -17.6432 29.3273 -96.578
rradius 83.4742
rwrist 49.4099
rhand -19.7472 -60.0722
rfingers 7.12502
rthumb 6.58387 -89.9498
lclavicle -7.71844e-016 8.15017e-015
lhumerus -21.7739 -22.5879 101.274
lradius 70.0474
lwrist -39.893
lhand -48.1376 -35.4265
lfingers 7.12502
lthumb -20.8006 -6.52141
rfemur -10.4076 29.4098 19.1129
rtibia 0.684693
rfoot -15.7702 -33.4518
rtoes 9.16915
lfemur -1.94765 -52.7749 -9.70469
ltibia -5.17437
lfoot -33.2173 60.9135
ltoes 22.9926
1589
root 0.842538 17.554 8.71086 16.8131 -2.23795 -8.95642
lowerback 2.4458 2.31379 3.13978
upperback -8.77474 3.60848 2.36552
thorax -10.6891 1.61996 0.362565
lowerneck -13.716 -4.39362 -2.79774
upperneck 21.7103 -7.12532 6.81986
head 9.46644 -2.81895 1.93903
rclavicle -1.14581e-014 -1.37161e-014
rhumerus -17.8319 30.538 -96.6101
rradius 82.1988
rwrist 49.9403
rhand -20.9888 -61.0252
rfingers 7.12502
rthumb 5.38516 -269.063
lclavicle -1.14581e-014 -1.37161e-014
lhumerus -21.8498 -22.5091 101.29
lradius 69.9773
lwrist -39.9457
lhand -48.0231 -34.9517
lfingers 7.12502
lthumb -20.6906 -6.03458
rfemur -10.3076 29.3686 19.1231
rtibia 0.644575
rfoot -15.7533 -33.4498
rtoes 9.20283
lfemur -1.87512 -52.6434 -9.81888
ltibia -5.16946
lfoot -32.8572 60.8212
ltoes 22.8041
